<?xml version="1.0" encoding="UTF-8"?>
<svg version="1.1" xmlns="http://www.w3.org/2000/svg" width="512" height="512">
<path d="M0 0 C5.63321391 0.55264529 10.61572786 1.5896527 15.9375 3.5 C17.03058472 3.89203613 17.03058472 3.89203613 18.14575195 4.29199219 C32.00436828 9.45905755 44.32893116 16.99314402 56 26 C57.13501953 26.85658203 57.13501953 26.85658203 58.29296875 27.73046875 C64.61795646 32.84348277 69.27438285 39.45117762 74 46 C74.51820313 46.71285156 75.03640625 47.42570312 75.5703125 48.16015625 C79.47507048 53.94361854 81.6684941 60.46374381 84 67 C84.31195313 67.83144531 84.62390625 68.66289063 84.9453125 69.51953125 C88.36334688 78.9937916 88.13410359 88.60960058 88.0625 98.5625 C88.05798828 99.76197266 88.05347656 100.96144531 88.04882812 102.19726562 C88.03713769 105.13156359 88.02075138 108.06575449 88 111 C88.59748047 110.00419922 88.59748047 110.00419922 89.20703125 108.98828125 C90.8046875 106.32552083 92.40234375 103.66276042 94 101 C94.51949219 100.06542969 95.03898438 99.13085938 95.57421875 98.16796875 C96.04472656 97.45253906 96.51523437 96.73710938 97 96 C97.66 96 98.32 96 99 96 C99.28359375 95.40445313 99.5671875 94.80890625 99.859375 94.1953125 C105.69171336 82.97005853 120.17131824 73.78848688 132 70 C138.62499514 68.52864385 145.21477151 67.68440798 152 68 C152 71 152 71 150.49609375 72.5078125 C149.81675781 73.04148437 149.13742187 73.57515625 148.4375 74.125 C144.43646333 77.44379951 141.46882243 81.06552411 138.4453125 85.27734375 C137.96835937 85.84582031 137.49140625 86.41429688 137 87 C136.34 87 135.68 87 135 87 C134.74992187 87.52464844 134.49984375 88.04929687 134.2421875 88.58984375 C132.97880898 91.04111592 131.59199248 93.40011381 130.18164062 95.76904297 C123.15094942 107.7023742 119.54692879 117.9882419 121 132 C122.25274437 136.7928029 124.15663685 139.26664074 127.875 142.5 C132.02534666 144.4921664 134.86937877 144.65102315 139.25 143.3125 C142.22442897 141.08167827 142.70722811 138.08782114 143.64038086 134.62060547 C144.04833585 131.64776849 143.6459066 130.15717211 142.56640625 127.3828125 C142.24736328 126.52816406 141.92832031 125.67351562 141.59960938 124.79296875 C141.25736328 123.91253906 140.91511719 123.03210938 140.5625 122.125 C137.40994939 113.99442187 135.57194712 107.82046841 138.8125 99.3125 C139.14894531 98.40113281 139.48539062 97.48976563 139.83203125 96.55078125 C140.97228451 94.06052915 142.27190621 92.11431532 144 90 C147.59688162 91.19896054 148.0646268 92.19050378 150.0625 95.3125 C150.82240234 96.48232422 150.82240234 96.48232422 151.59765625 97.67578125 C153 100 153 100 154.07421875 102.234375 C155.31084008 104.59282581 156.60428574 104.86869049 159 106 C161.14223758 107.55942295 163.03062715 109.20966105 165 111 C165 111.66 165 112.32 165 113 C165.81984375 113.33064453 165.81984375 113.33064453 166.65625 113.66796875 C169.74455023 115.42315271 172.04210292 117.79097888 174.5 120.3125 C174.97308594 120.78623047 175.44617188 121.25996094 175.93359375 121.74804688 C186.46958583 132.41537404 191.32111178 144.16026035 194.2734375 158.578125 C194.81666722 161.8430761 194.81666722 161.8430761 196 164 C196.598125 163.4225 197.19625 162.845 197.8125 162.25 C205.9920577 156.47619457 214.17896891 155.38297187 224 156 C222.63760782 158.84223197 221.44766831 160.96027641 219 163 C218.34 163 217.68 163 217 163 C217 163.66 217 164.32 217 165 C216.34 165 215.68 165 215 165 C214.5978125 165.86044922 214.5978125 165.86044922 214.1875 166.73828125 C212.96558469 169.06554758 211.54667501 171.06468855 210 173.1875 C205.10585438 180.45709679 203.99754504 188.25154736 205.5 196.8671875 C207.37270749 205.74126729 210.48569116 213.93003725 213.94433594 222.27978516 C224.60654798 248.06472158 232.08756713 276.94821648 224.49560547 304.85400391 C223.85210143 307.64040808 223.70620283 310.35241661 223.53515625 313.20703125 C223.45861816 314.42624268 223.38208008 315.6454541 223.30322266 316.90161133 C223.22378418 318.19220459 223.1443457 319.48279785 223.0625 320.8125 C221.48988489 344.57177837 217.95443008 367.16761124 208 389 C207.66838867 389.74531982 207.33677734 390.49063965 206.99511719 391.25854492 C194.65202567 418.94036142 174.3991411 446.74775321 149 464 C148.01 464 147.02 464 146 464 C146 464.66 146 465.32 146 466 C143.47189741 467.77800621 140.95474568 469.40577294 138.3125 471 C137.51320068 471.48476807 136.71390137 471.96953613 135.89038086 472.46899414 C123.35551062 479.91591859 109.93381222 486.61606248 96 491 C94.92492187 491.37318359 94.92492187 491.37318359 93.828125 491.75390625 C79.74203384 496.39260179 64.79536285 498.74060726 50 499 C49.1838623 499.01514648 48.36772461 499.03029297 47.52685547 499.04589844 C41.3486757 499.1401516 35.17776649 499.10422988 29 499 C28.29907227 498.99274902 27.59814453 498.98549805 26.87597656 498.97802734 C-3.8202253 498.5272867 -35.63140606 486.92278441 -61 470 C-61.5681543 469.62117676 -62.13630859 469.24235352 -62.72167969 468.85205078 C-70.50571319 463.61188923 -77.57766918 457.921656 -84.3828125 451.46484375 C-86.47592722 449.49356705 -88.5913117 447.6338744 -90.8125 445.8125 C-98.72696511 439.07759459 -104.86443948 430.32815517 -111 422 C-111.4115332 421.44489746 -111.82306641 420.88979492 -112.24707031 420.31787109 C-124.97065949 402.92020726 -133.40518466 382.7911452 -139.1875 362.125 C-139.44724609 361.21492188 -139.70699219 360.30484375 -139.97460938 359.3671875 C-141.79970124 352.91569999 -143.09183658 346.91674639 -143.46484375 340.1953125 C-143.54283203 338.88949219 -143.62082031 337.58367187 -143.70117188 336.23828125 C-143.82049387 334.1826108 -143.93739772 332.12687483 -144.04956055 330.07080078 C-144.16016965 328.07023958 -144.28116459 326.07026128 -144.40234375 324.0703125 C-144.46929443 322.88195801 -144.53624512 321.69360352 -144.60522461 320.46923828 C-145.02248113 316.80243856 -145.93077728 313.52622101 -147 310 C-152.43587576 281.59900345 -147.47909333 254.1698154 -139.82421875 226.76953125 C-132.34333579 199.82102237 -131.98022474 176.32271746 -139.1328125 149.3203125 C-139.85523615 146.55427602 -140.47662402 143.80914049 -141 141 C-136.4923533 141.53031138 -133.58045212 143.25221116 -130 146 C-130 146.66 -130 147.32 -130 148 C-129.4121875 148.25394531 -128.824375 148.50789062 -128.21875 148.76953125 C-122.07401277 152.17726404 -118.16186842 158.92921264 -115 165 C-114.85304687 164.41734375 -114.70609375 163.8346875 -114.5546875 163.234375 C-111.00779025 150.26985402 -104.42106819 140.23033403 -96 130 C-95.29746094 129.14277344 -94.59492187 128.28554687 -93.87109375 127.40234375 C-90.49418789 123.405046 -90.49418789 123.405046 -89 122 C-88.34 122 -87.68 122 -87 122 C-86.505 120.515 -86.505 120.515 -86 119 C-85.34 119 -84.68 119 -84 119 C-83.77699219 118.45601563 -83.55398437 117.91203125 -83.32421875 117.3515625 C-81.58835974 114.26900461 -79.2466961 111.90600839 -76.8125 109.375 C-72.47956093 104.78826942 -68.76264331 100.08812016 -65.33984375 94.765625 C-64.89769531 94.18296875 -64.45554687 93.6003125 -64 93 C-63.34 93 -62.68 93 -62 93 C-61.731875 92.113125 -61.46375 91.22625 -61.1875 90.3125 C-60 87 -60 87 -58.6171875 84.73046875 C-51.25977208 72.30816591 -49.74810378 59.16850686 -49 45 C-43.18272604 47.64579921 -40.50435472 52.83035275 -37 58 C-36.58234375 58.59039062 -36.1646875 59.18078125 -35.734375 59.7890625 C-25.14719859 76.17397838 -28.36944776 98.5689363 -30 117 C-28.22776281 114.91784697 -26.45717274 112.83433081 -24.6875 110.75 C-24.18798828 110.16347656 -23.68847656 109.57695313 -23.17382812 108.97265625 C-21.11949908 106.55099685 -19.11700282 104.16375113 -17.26953125 101.578125 C-16.64111328 100.79695313 -16.64111328 100.79695313 -16 100 C-15.34 100 -14.68 100 -14 100 C-13.76667969 99.44441406 -13.53335938 98.88882813 -13.29296875 98.31640625 C-11.67096603 95.41052222 -9.6189617 93.33579632 -7.3125 90.9375 C5.27860602 77.27442391 10.32872809 64.09410504 10.15234375 45.7109375 C9.57187102 31.57121709 5.85107948 18.33334621 0.734375 5.20703125 C0 3 0 3 0 0 Z " fill="#FEFDFC" transform="translate(217,0)"/>
<path d="M0 0 C1.66640843 0.33462192 3.33300792 0.66829789 5 1 C5 1.66 5 2.32 5 3 C5.845625 3.12375 6.69125 3.2475 7.5625 3.375 C14.7452971 4.68096311 21.28576677 7.21703814 28 10 C27.67 10.66 27.34 11.32 27 12 C25.02 12 23.04 12 21 12 C21 12.66 21 13.32 21 14 C14.3178875 16.92342422 7.75979087 18.07865168 0.5625 18.9375 C-12.68801903 20.52656425 -24.80373594 22.26169564 -37 28 C-37.825 28.29261719 -38.65 28.58523437 -39.5 28.88671875 C-42.57234829 30.25487385 -44.72788274 32.02993271 -47.25 34.25 C-48.55710938 35.37148437 -48.55710938 35.37148437 -49.890625 36.515625 C-52.37596036 39.44279775 -52.8969588 41.18747576 -53 45 C-52.34 45.99 -51.68 46.98 -51 48 C-45.82544544 48.96246715 -40.81898887 47.97702107 -36 46 C-35.34 48.31 -34.68 50.62 -34 53 C-31.03213881 53.93275638 -29.41173003 54.14059074 -26.4375 53.125 C-22.89543489 50.0370458 -21.66901738 46.31162823 -20 42 C-19.67 41.34 -19.34 40.68 -19 40 C-15.27566618 41.2125738 -11.62197194 42.50859979 -8 44 C-8.54380591 47.76544398 -9.94130428 49.11096109 -12.875 51.4375 C-15.45174916 53.48653854 -16.84745238 54.65160742 -18.18359375 57.703125 C-20 60 -20 60 -21.91894531 60.39868164 C-24.35986228 60.49329682 -26.74793988 60.43513837 -29.1875 60.3125 C-30.4549707 60.27866211 -30.4549707 60.27866211 -31.74804688 60.24414062 C-33.83278798 60.18524963 -35.91661804 60.09556798 -38 60 C-38.67482422 58.54207031 -38.67482422 58.54207031 -39.36328125 57.0546875 C-40.64917215 53.86839546 -40.64917215 53.86839546 -43.1875 53.125 C-43.785625 53.08375 -44.38375 53.0425 -45 53 C-47.10827055 56.16240582 -47.33817465 57.50657469 -47.625 61.1875 C-47.73714844 62.53908203 -47.73714844 62.53908203 -47.8515625 63.91796875 C-47.92503906 64.94857422 -47.92503906 64.94857422 -48 66 C-48.9075 66.350625 -49.815 66.70125 -50.75 67.0625 C-55.52595067 69.08836432 -59.89036774 71.80715014 -64.328125 74.4765625 C-67.76553791 76.43649092 -70.29246481 77.12635304 -74.1875 77.0625 C-75.445625 77.041875 -76.70375 77.02125 -78 77 C-77.67 78.65 -77.34 80.3 -77 82 C-74.03 82.66 -71.06 83.32 -68 84 C-68 86.64 -68 89.28 -68 92 C-73.94 92 -79.88 92 -86 92 C-86 97.94 -86 103.88 -86 110 C-83.463125 110.0825 -80.92625 110.165 -78.3125 110.25 C-77.52270752 110.28641602 -76.73291504 110.32283203 -75.91918945 110.36035156 C-72.20896697 110.4185217 -70.37995323 110.23461593 -67.140625 108.234375 C-65.20514859 106.2141332 -63.79899423 104.42886776 -62.4375 102 C-58.66966638 95.73190642 -55.05994247 92.90180621 -48 91 C-44.06504827 90.44910676 -42.39909019 90.80436755 -38.8125 92.5625 C-35.42824546 95.4955206 -34.32142764 97.74206651 -33 102 C-32.8125 105.4375 -32.8125 105.4375 -33 108 C-32.0925 107.505 -31.185 107.01 -30.25 106.5 C-27 105 -27 105 -23 105 C-24.54821638 101.00723144 -26.13635917 97.63733817 -28.6875 94.1875 C-31 91 -31 91 -31 89 C-24.66693419 89.48715891 -24.66693419 89.48715891 -21.8359375 91.6640625 C-19.57766952 94.53734815 -19.29137885 96.51933635 -18.875 100.125 C-18.5238256 104.56969578 -18.5238256 104.56969578 -16 108 C-12.63894168 108.76163556 -12.63894168 108.76163556 -9 108 C-6.72674166 105.94737249 -5.29387373 103.50056871 -3.75 100.875 C-3.32976562 100.20984375 -2.90953125 99.5446875 -2.4765625 98.859375 C-0.0782339 95.01299895 1.9970535 91.06771234 4 87 C5 86 5 86 8.875 85.6875 C15.57831974 85.75185187 21.38147798 88.23026906 27.32421875 91.13671875 C29.35597674 93.39580631 29.24379554 94.22405616 29.25 97.1875 C29.1675 98.445625 29.085 99.70375 29 101 C25.85418698 101.02948491 22.70841037 101.04695916 19.5625 101.0625 C18.68400391 101.07087891 17.80550781 101.07925781 16.90039062 101.08789062 C11.18216923 101.10899107 5.67199185 100.73280057 0 100 C0.165 100.825 0.33 101.65 0.5 102.5 C1 106 1 106 1 114 C6.61 114.66 12.22 115.32 18 116 C18 118.64 18 121.28 18 124 C9.58173087 125.69882188 1.58077055 126.24911914 -7 126 C-7 125.34 -7 124.68 -7 124 C-8.09957031 124.0721875 -9.19914063 124.144375 -10.33203125 124.21875 C-18.56483868 124.74163067 -26.74572826 125.16045021 -35 125 C-35.67031719 123.0429132 -36.33614683 121.08428887 -37 119.125 C-37.37125 118.03445313 -37.7425 116.94390625 -38.125 115.8203125 C-39 113 -39 113 -39 111 C-56.19821605 111.43049352 -74.15389268 112.62156234 -86.64331055 125.65063477 C-97.09316369 136.86584716 -101.35853578 144.75576458 -101.3125 160.5 C-101.32861328 161.60214844 -101.34472656 162.70429688 -101.36132812 163.83984375 C-101.3661104 171.80710817 -100.86834019 176.82995292 -95.36328125 182.9140625 C-94.35935531 183.83213069 -93.34190916 184.73559949 -92.3125 185.625 C-91.7772168 186.09719971 -91.24193359 186.56939941 -90.69042969 187.0559082 C-83.26819643 193.79410139 -83.26819643 193.79410139 -73.9375 196.5 C-70.00139272 196.19653634 -70.00139272 196.19653634 -66.6875 194.5 C-60.65150899 192.04468162 -54.71385592 192.06248614 -48.5625 194.1875 C-43.4099539 197.83198383 -41.39993084 202.02589087 -39.5 207.9375 C-38.26308204 211.77779595 -37.14651751 214.78505398 -34.8671875 218.12890625 C-32.90458653 221.14671319 -32.50070397 222.47451261 -32.625 226 C-32.63789063 226.804375 -32.65078125 227.60875 -32.6640625 228.4375 C-33 231 -33 231 -33.98828125 233.92578125 C-36.04855821 240.18615951 -36.41363278 246.89978517 -33.64453125 252.97265625 C-31.87642541 255.74776276 -29.95508006 258.35465698 -28 261 C-27.53335938 261.88558594 -27.06671875 262.77117187 -26.5859375 263.68359375 C-25.2414368 266.20354974 -24.11147709 268.07333491 -22 270 C-18.16728584 271.01049718 -14.87536984 270.65218324 -11 270 C-10.18660156 269.89558594 -9.37320313 269.79117187 -8.53515625 269.68359375 C-4.64168951 268.83834542 -2.60672319 267.78061665 -0.1328125 264.59765625 C1.05188205 262.67845108 2.20383816 260.73869654 3.32421875 258.78125 C6.61427151 253.32083609 11.40771398 249.4997783 16.1875 245.375 C21.98417209 240.31690003 25.58043387 235.66359978 27 228 C26.95569192 225.96787018 26.91030303 223.93571489 26.84814453 221.90405273 C26.75426576 216.06620757 26.80371956 211.74931969 31.03125 207.375 C33.98492674 204.73721616 37.13869435 202.42357553 40.38525391 200.16162109 C46.73363148 195.59470539 49.18290433 190.08376679 51.1875 182.6875 C51.53167969 181.43324219 51.87585938 180.17898438 52.23046875 178.88671875 C52.48441406 177.93410156 52.73835937 176.98148438 53 176 C48.58969376 176.85005903 44.39009101 177.69591546 40.3125 179.625 C36.86038146 181.05795487 34.67912303 181.11320379 31 181 C30.90203125 180.03320312 30.8040625 179.06640625 30.703125 178.0703125 C29.64718344 168.87633854 27.66571707 161.52889465 23.62890625 153.15625 C23.17386719 152.1971875 22.71882812 151.238125 22.25 150.25 C21.82203125 149.38890625 21.3940625 148.5278125 20.953125 147.640625 C19.86163397 144.61665804 19.83205568 142.19094215 20 139 C26.17100919 144.4853415 28.69987913 150.79072701 31.140625 158.546875 C32.76056272 163.17106086 34.90713735 167.57438135 37 172 C43.0622184 171.52796965 47.46206854 170.20812548 52.8125 167.375 C53.50102051 167.02179688 54.18954102 166.66859375 54.89892578 166.3046875 C60.11710824 163.58321399 65.08543608 160.54943298 69.9609375 157.25 C72 156 72 156 74 156 C73.68868937 151.7519924 73.68868937 151.7519924 71.38671875 148.33984375 C68.24073157 146.57376584 65.64981092 146.58173937 62.0625 146.375 C55.6003176 145.60841437 55.6003176 145.60841437 52.97265625 142.9453125 C51.34456446 139.99115174 50 137.4134749 50 134 C52.92090003 135.30936898 54.75619462 136.75619462 57 139 C60.09577944 140.03192648 62.56535835 140.20345289 65.8125 140.375 C75.11436785 141.12316944 81.88612772 145.77494198 88.3125 152.375 C91.80300581 157.8046757 93.03838668 162.88191441 93.875 169.1875 C94.48713946 173.19423103 94.87720683 174.83074455 97.3125 178.1875 C100.00270959 180.0018274 101.78935005 180.72480143 105 181 C105.26296875 180.27554688 105.5259375 179.55109375 105.796875 178.8046875 C108.84499629 171.69900216 114.34634904 164.31248237 120 159 C120.99 158.67 121.98 158.34 123 158 C123.89198123 180.10131279 118.91499767 200.85523333 110 221 C109.72671875 221.74636719 109.4534375 222.49273437 109.171875 223.26171875 C103.99541192 235.35738748 96.30926887 246.85639501 88 257 C87.54512207 257.56025879 87.09024414 258.12051758 86.62158203 258.69775391 C67.23312269 282.45234141 41.32849923 300.53667091 12 310 C10.45699219 310.52980469 10.45699219 310.52980469 8.8828125 311.0703125 C-30.24970251 323.5006408 -74.74120371 318.18740697 -110.984375 299.73828125 C-123.69960175 292.9651858 -135.23473679 284.54097837 -146 275 C-145.7215625 274.319375 -145.443125 273.63875 -145.15625 272.9375 C-143.86195609 269.64929386 -142.6775995 266.33174493 -141.5 263 C-139.1658612 256.39609511 -139.1658612 256.39609511 -137.8828125 253.33203125 C-137.02057218 251.05434333 -136.62051108 249.10169226 -136.375 246.6875 C-136.25125 245.470625 -136.1275 244.25375 -136 243 C-136.68578125 242.74089844 -137.3715625 242.48179687 -138.078125 242.21484375 C-142.04062928 240.56733194 -145.80264901 238.56935448 -149.61279297 236.59936523 C-153.07630387 234.84673979 -156.36662968 233.51145729 -160.125 232.5625 C-162.5207364 231.8243303 -163.68095131 231.39732461 -165.2578125 229.43359375 C-166.3372923 227.32988313 -167.17295801 225.21516092 -168 223 C-173.26183282 210.89250507 -177.49337094 203.04661907 -189.1328125 196.34375 C-194.42045776 192.53841534 -195.20487064 187.3373997 -196.41113281 181.24853516 C-197.54684472 174.00145847 -197.44385707 166.66557461 -197.39111328 159.34838867 C-197.37491708 156.67380621 -197.39110648 154.00071101 -197.41015625 151.32617188 C-197.4081753 149.59635089 -197.40433469 147.86653082 -197.3984375 146.13671875 C-197.40451019 145.35213791 -197.41058289 144.56755707 -197.4168396 143.75920105 C-197.33156381 136.95116912 -196.28752463 129.88517784 -191.25 124.9375 C-186.17541256 121.04661762 -176.45903718 114 -170 114 C-171.54717338 105.70769356 -173.82586539 98.6292118 -177.79296875 91.16796875 C-179.59551722 86.4370082 -180.11333273 82.4881107 -178.03833008 77.85083008 C-176.72199467 75.59429128 -175.30495309 73.45634468 -173.8125 71.3125 C-173.08836914 70.21325195 -173.08836914 70.21325195 -172.34960938 69.09179688 C-169.56478911 64.94633959 -166.66216049 61.39436082 -163 58 C-163.03480469 59.10859375 -163.06960937 60.2171875 -163.10546875 61.359375 C-163.13361349 62.82290148 -163.16091292 64.28644439 -163.1875 65.75 C-163.21263672 66.47960937 -163.23777344 67.20921875 -163.26367188 67.9609375 C-163.30981636 71.34486604 -163.25324128 73.57858557 -161.48828125 76.515625 C-160.99714844 77.00546875 -160.50601563 77.4953125 -160 78 C-151.67361356 75.79595653 -147.62189115 67.02122022 -143.33276367 60.20849609 C-140.80235822 56.19704815 -138.14360979 52.36602714 -135.19140625 48.6484375 C-132.11459245 44.39133775 -131.62961521 41.27798328 -132 36 C-132.61344757 34.31301918 -133.27095914 32.64034193 -134 31 C-134 30.01 -134 29.02 -134 28 C-131.84503145 26.27908185 -129.75116328 24.79272254 -127.4375 23.3125 C-126.76364258 22.87405762 -126.08978516 22.43561523 -125.39550781 21.98388672 C-115.10194591 15.38845307 -104.6371729 9.84746922 -93 6 C-91.72701161 5.50551248 -90.45603307 5.00580749 -89.1875 4.5 C-60.05983423 -6.34917106 -30.16012376 -6.31825553 0 0 Z " fill="#E46962" transform="translate(293,159)"/>
<path d="M0 0 C5.63321391 0.55264529 10.61572786 1.5896527 15.9375 3.5 C17.03058472 3.89203613 17.03058472 3.89203613 18.14575195 4.29199219 C32.00436828 9.45905755 44.32893116 16.99314402 56 26 C57.13501953 26.85658203 57.13501953 26.85658203 58.29296875 27.73046875 C64.61795646 32.84348277 69.27438285 39.45117762 74 46 C74.51820313 46.71285156 75.03640625 47.42570312 75.5703125 48.16015625 C79.47507048 53.94361854 81.6684941 60.46374381 84 67 C84.31195313 67.83144531 84.62390625 68.66289063 84.9453125 69.51953125 C88.36334688 78.9937916 88.13410359 88.60960058 88.0625 98.5625 C88.05798828 99.76197266 88.05347656 100.96144531 88.04882812 102.19726562 C88.03713769 105.13156359 88.02075138 108.06575449 88 111 C88.59748047 110.00419922 88.59748047 110.00419922 89.20703125 108.98828125 C90.8046875 106.32552083 92.40234375 103.66276042 94 101 C94.51949219 100.06542969 95.03898438 99.13085938 95.57421875 98.16796875 C96.04472656 97.45253906 96.51523437 96.73710938 97 96 C97.66 96 98.32 96 99 96 C99.28359375 95.40445313 99.5671875 94.80890625 99.859375 94.1953125 C105.69171336 82.97005853 120.17131824 73.78848688 132 70 C138.62499514 68.52864385 145.21477151 67.68440798 152 68 C152 71 152 71 150.49609375 72.5078125 C149.81675781 73.04148437 149.13742187 73.57515625 148.4375 74.125 C144.43646333 77.44379951 141.46882243 81.06552411 138.4453125 85.27734375 C137.96835937 85.84582031 137.49140625 86.41429688 137 87 C136.34 87 135.68 87 135 87 C134.74992187 87.52464844 134.49984375 88.04929687 134.2421875 88.58984375 C132.97880898 91.04111592 131.59199248 93.40011381 130.18164062 95.76904297 C123.15094942 107.7023742 119.54692879 117.9882419 121 132 C122.25274437 136.7928029 124.15663685 139.26664074 127.875 142.5 C132.02534666 144.4921664 134.86937877 144.65102315 139.25 143.3125 C142.22442897 141.08167827 142.70722811 138.08782114 143.64038086 134.62060547 C144.04833585 131.64776849 143.6459066 130.15717211 142.56640625 127.3828125 C142.24736328 126.52816406 141.92832031 125.67351562 141.59960938 124.79296875 C141.25736328 123.91253906 140.91511719 123.03210938 140.5625 122.125 C137.40994939 113.99442187 135.57194712 107.82046841 138.8125 99.3125 C139.14894531 98.40113281 139.48539062 97.48976563 139.83203125 96.55078125 C140.97228451 94.06052915 142.27190621 92.11431532 144 90 C147.59688162 91.19896054 148.0646268 92.19050378 150.0625 95.3125 C150.82240234 96.48232422 150.82240234 96.48232422 151.59765625 97.67578125 C153 100 153 100 154.07421875 102.234375 C155.31084008 104.59282581 156.60428574 104.86869049 159 106 C161.14223758 107.55942295 163.03062715 109.20966105 165 111 C165 111.66 165 112.32 165 113 C165.81984375 113.33064453 165.81984375 113.33064453 166.65625 113.66796875 C169.74455023 115.42315271 172.04210292 117.79097888 174.5 120.3125 C174.97308594 120.78623047 175.44617188 121.25996094 175.93359375 121.74804688 C186.46958583 132.41537404 191.32111178 144.16026035 194.2734375 158.578125 C194.81666722 161.8430761 194.81666722 161.8430761 196 164 C196.598125 163.4225 197.19625 162.845 197.8125 162.25 C205.9920577 156.47619457 214.17896891 155.38297187 224 156 C222.63760782 158.84223197 221.44766831 160.96027641 219 163 C218.34 163 217.68 163 217 163 C217 163.66 217 164.32 217 165 C216.34 165 215.68 165 215 165 C214.5978125 165.86044922 214.5978125 165.86044922 214.1875 166.73828125 C212.96558469 169.06554758 211.54667501 171.06468855 210 173.1875 C205.10585438 180.45709679 203.99754504 188.25154736 205.5 196.8671875 C207.37270749 205.74126729 210.48569116 213.93003725 213.94433594 222.27978516 C224.60654798 248.06472158 232.08756713 276.94821648 224.49560547 304.85400391 C223.85210143 307.64040808 223.70620283 310.35241661 223.53515625 313.20703125 C223.45861816 314.42624268 223.38208008 315.6454541 223.30322266 316.90161133 C223.22378418 318.19220459 223.1443457 319.48279785 223.0625 320.8125 C221.48988489 344.57177837 217.95443008 367.16761124 208 389 C207.66838867 389.74531982 207.33677734 390.49063965 206.99511719 391.25854492 C194.65202567 418.94036142 174.3991411 446.74775321 149 464 C148.01 464 147.02 464 146 464 C146 464.66 146 465.32 146 466 C143.47189741 467.77800621 140.95474568 469.40577294 138.3125 471 C137.51320068 471.48476807 136.71390137 471.96953613 135.89038086 472.46899414 C123.35551062 479.91591859 109.93381222 486.61606248 96 491 C94.92492187 491.37318359 94.92492187 491.37318359 93.828125 491.75390625 C79.74203384 496.39260179 64.79536285 498.74060726 50 499 C49.1838623 499.01514648 48.36772461 499.03029297 47.52685547 499.04589844 C41.3486757 499.1401516 35.17776649 499.10422988 29 499 C28.29907227 498.99274902 27.59814453 498.98549805 26.87597656 498.97802734 C-3.8202253 498.5272867 -35.63140606 486.92278441 -61 470 C-61.5681543 469.62117676 -62.13630859 469.24235352 -62.72167969 468.85205078 C-70.50571319 463.61188923 -77.57766918 457.921656 -84.3828125 451.46484375 C-86.47592722 449.49356705 -88.5913117 447.6338744 -90.8125 445.8125 C-98.72696511 439.07759459 -104.86443948 430.32815517 -111 422 C-111.4115332 421.44489746 -111.82306641 420.88979492 -112.24707031 420.31787109 C-124.97065949 402.92020726 -133.40518466 382.7911452 -139.1875 362.125 C-139.44724609 361.21492188 -139.70699219 360.30484375 -139.97460938 359.3671875 C-141.79970124 352.91569999 -143.09183658 346.91674639 -143.46484375 340.1953125 C-143.54283203 338.88949219 -143.62082031 337.58367187 -143.70117188 336.23828125 C-143.82049387 334.1826108 -143.93739772 332.12687483 -144.04956055 330.07080078 C-144.16016965 328.07023958 -144.28116459 326.07026128 -144.40234375 324.0703125 C-144.46929443 322.88195801 -144.53624512 321.69360352 -144.60522461 320.46923828 C-145.02248113 316.80243856 -145.93077728 313.52622101 -147 310 C-152.43587576 281.59900345 -147.47909333 254.1698154 -139.82421875 226.76953125 C-132.34333579 199.82102237 -131.98022474 176.32271746 -139.1328125 149.3203125 C-139.85523615 146.55427602 -140.47662402 143.80914049 -141 141 C-136.4923533 141.53031138 -133.58045212 143.25221116 -130 146 C-130 146.66 -130 147.32 -130 148 C-129.4121875 148.25394531 -128.824375 148.50789062 -128.21875 148.76953125 C-122.07401277 152.17726404 -118.16186842 158.92921264 -115 165 C-114.85304687 164.41734375 -114.70609375 163.8346875 -114.5546875 163.234375 C-111.00779025 150.26985402 -104.42106819 140.23033403 -96 130 C-95.29746094 129.14277344 -94.59492187 128.28554687 -93.87109375 127.40234375 C-90.49418789 123.405046 -90.49418789 123.405046 -89 122 C-88.34 122 -87.68 122 -87 122 C-86.505 120.515 -86.505 120.515 -86 119 C-85.34 119 -84.68 119 -84 119 C-83.77699219 118.45601563 -83.55398437 117.91203125 -83.32421875 117.3515625 C-81.58835974 114.26900461 -79.2466961 111.90600839 -76.8125 109.375 C-72.47956093 104.78826942 -68.76264331 100.08812016 -65.33984375 94.765625 C-64.89769531 94.18296875 -64.45554687 93.6003125 -64 93 C-63.34 93 -62.68 93 -62 93 C-61.731875 92.113125 -61.46375 91.22625 -61.1875 90.3125 C-60 87 -60 87 -58.6171875 84.73046875 C-51.25977208 72.30816591 -49.74810378 59.16850686 -49 45 C-43.18272604 47.64579921 -40.50435472 52.83035275 -37 58 C-36.58234375 58.59039062 -36.1646875 59.18078125 -35.734375 59.7890625 C-25.14719859 76.17397838 -28.36944776 98.5689363 -30 117 C-28.22776281 114.91784697 -26.45717274 112.83433081 -24.6875 110.75 C-24.18798828 110.16347656 -23.68847656 109.57695313 -23.17382812 108.97265625 C-21.11949908 106.55099685 -19.11700282 104.16375113 -17.26953125 101.578125 C-16.64111328 100.79695313 -16.64111328 100.79695313 -16 100 C-15.34 100 -14.68 100 -14 100 C-13.76667969 99.44441406 -13.53335938 98.88882813 -13.29296875 98.31640625 C-11.67096603 95.41052222 -9.6189617 93.33579632 -7.3125 90.9375 C5.27860602 77.27442391 10.32872809 64.09410504 10.15234375 45.7109375 C9.57187102 31.57121709 5.85107948 18.33334621 0.734375 5.20703125 C0 3 0 3 0 0 Z M-75 186 C-75.88300781 186.76183594 -76.76601562 187.52367187 -77.67578125 188.30859375 C-99.06314837 206.96848948 -114.28760292 231.47229947 -124 258 C-124.23557617 258.63550781 -124.47115234 259.27101563 -124.71386719 259.92578125 C-134.8637653 287.89953753 -137.16488627 322.00604614 -130 351 C-129.66727589 352.50375311 -129.33527524 354.00766644 -129.00390625 355.51171875 C-122.31165748 384.42547309 -108.1246692 410.10552248 -88.0078125 431.78125 C-86.60167378 433.33511535 -85.25377022 434.94275594 -83.953125 436.5859375 C-81.01715547 440.21479584 -77.58890786 443.03160425 -74 446 C-72.98679688 446.83917969 -71.97359375 447.67835938 -70.9296875 448.54296875 C-53.13528778 463.03088033 -33.27645684 474.1242891 -11.3125 480.9375 C-10.44810303 481.20780029 -9.58370605 481.47810059 -8.69311523 481.7565918 C6.03665909 486.05317292 20.70363635 487.5022172 35.99609375 487.39111328 C38.63073102 487.37496487 41.26384477 487.39110747 43.8984375 487.41015625 C54.65174031 487.42251471 64.49773766 486.29852046 75 484 C77.14469601 483.63901006 79.2903783 483.28377032 81.4375 482.9375 C108.49160583 477.00105621 134.58666001 462.05705792 154.671875 443.17578125 C156.48568315 441.48066189 158.3022971 439.90753465 160.25 438.375 C189.15443011 413.41208309 207.53624034 370.31076035 211 333 C211.39921457 326.69317087 211.43642266 320.37996925 211.4375 314.0625 C211.43989685 313.21325958 211.4422937 312.36401917 211.44476318 311.48904419 C211.44515098 294.9810747 209.41953168 279.67718936 204 264 C203.55236455 262.58105081 203.10585822 261.16174519 202.66015625 259.7421875 C188.17121063 214.94808367 155.10163259 181.50916772 114 160 C112.83476807 159.37798706 112.83476807 159.37798706 111.64599609 158.7434082 C105.3252347 155.45583147 98.88724808 153.03339197 92.125 150.8125 C91.12597656 150.47025391 90.12695312 150.12800781 89.09765625 149.77539062 C83.04842294 147.76548407 77.14566238 146.36817865 70.83984375 145.44213867 C68.30095214 145.0468556 65.86354546 144.50500252 63.3671875 143.90625 C55.72934597 142.3622693 47.88729865 142.51730863 40.125 142.5 C39.29206421 142.49632416 38.45912842 142.49264832 37.60095215 142.48886108 C-3.75790843 142.45967102 -44.2567847 158.42451363 -75 186 Z " fill="#EF8F6B" transform="translate(217,0)"/>
<path d="M0 0 C0.22042969 1.32064453 0.22042969 1.32064453 0.4453125 2.66796875 C1.40910322 9.17254694 1.40910322 9.17254694 4.5703125 14.6953125 C5.12460938 15.06398437 5.67890625 15.43265625 6.25 15.8125 C7.1575 16.534375 8.065 17.25625 9 18 C9.23345381 20.93484787 8.69043654 23.09030316 8 26 C7.34 26 6.68 26 6 26 C5.773125 26.5775 5.54625 27.155 5.3125 27.75 C3.58776376 30.7066907 1.91897189 32.20881271 -1 34 C-4.4132672 33.92889027 -6.36922211 33.43253341 -9.1875 31.5 C-13.542775 29.17718667 -18.13117994 29.24727808 -23 29 C-23.49940808 22.88225104 -22.24900602 19.97504047 -19 15 C-17.0625 15.75 -17.0625 15.75 -15 17 C-14.37109375 19.078125 -14.37109375 19.078125 -14 21 C-13.94392578 19.82244141 -13.94392578 19.82244141 -13.88671875 18.62109375 C-13.50082943 12.45443115 -13.06272073 7.41865976 -10 2 C-6.3558226 -0.4294516 -4.28758728 -0.16179575 0 0 Z " fill="#FEF9F7" transform="translate(227,184)"/>
<path d="M0 0 C7.44785812 0.23274557 13.7966148 2.51199853 20.44921875 5.765625 C22.48097674 8.02471256 22.36879554 8.85296241 22.375 11.81640625 C22.2925 13.07453125 22.21 14.33265625 22.125 15.62890625 C18.97918698 15.65839116 15.83341037 15.67586541 12.6875 15.69140625 C11.80900391 15.69978516 10.93050781 15.70816406 10.02539062 15.71679688 C4.30716923 15.73789732 -1.20300815 15.36170682 -6.875 14.62890625 C-6.71 15.45390625 -6.545 16.27890625 -6.375 17.12890625 C-5.81603955 21.04162942 -5.80692813 24.68073798 -5.875 28.62890625 C-4.555 28.95890625 -3.235 29.28890625 -1.875 29.62890625 C-3.525 29.62890625 -5.175 29.62890625 -6.875 29.62890625 C-7.205 25.33890625 -7.535 21.04890625 -7.875 16.62890625 C-9.525 17.61890625 -11.175 18.60890625 -12.875 19.62890625 C-11.38576424 16.54355177 -9.71176058 13.62141927 -7.9375 10.69140625 C-7.43347656 9.85738281 -6.92945313 9.02335938 -6.41015625 8.1640625 C-5.90355469 7.32746094 -5.39695312 6.49085938 -4.875 5.62890625 C-4.39933594 4.71109375 -3.92367188 3.79328125 -3.43359375 2.84765625 C-1.875 0.62890625 -1.875 0.62890625 0 0 Z " fill="#EF9273" transform="translate(299.875,244.37109375)"/>
<path d="M0 0 C3.875 1.875 3.875 1.875 5 3 C5.32558177 5.01564712 5.61002447 7.03799394 5.875 9.0625 C6.45613881 13.08204344 7.09288327 16.73475087 8.625 20.5 C9.87948073 23.69322367 10.59340601 25.63736595 10 29 C6.68629 31.20914 5.6553979 31.22481553 1.8125 31.125 C0.91144531 31.10695313 0.01039063 31.08890625 -0.91796875 31.0703125 C-1.60503906 31.04710937 -2.29210937 31.02390625 -3 31 C-6.4986984 9.32056527 -6.4986984 9.32056527 -3.0625 4 C-2.381875 3.34 -1.70125 2.68 -1 2 C-0.67 1.34 -0.34 0.68 0 0 Z " fill="#F09774" transform="translate(343,243)"/>
<path d="M0 0 C3.72433382 1.2125738 7.37802806 2.50859979 11 4 C10.45619409 7.76544398 9.05869572 9.11096109 6.125 11.4375 C3.54825084 13.48653854 2.15254762 14.65160742 0.81640625 17.703125 C-1 20 -1 20 -2.91894531 20.39868164 C-5.35986228 20.49329682 -7.74793988 20.43513837 -10.1875 20.3125 C-11.03248047 20.28994141 -11.87746094 20.26738281 -12.74804688 20.24414062 C-14.83278798 20.18524963 -16.91661804 20.09556798 -19 20 C-19.67482422 18.55753906 -19.67482422 18.55753906 -20.36328125 17.0859375 C-22.03426649 13.93539253 -22.72623972 13.12888285 -26 12 C-26 11.34 -26 10.68 -26 10 C-27.32 9.67 -28.64 9.34 -30 9 C-29.39671875 8.86722656 -28.7934375 8.73445312 -28.171875 8.59765625 C-27.37265625 8.42105469 -26.5734375 8.24445313 -25.75 8.0625 C-24.96109375 7.88847656 -24.1721875 7.71445313 -23.359375 7.53515625 C-21.23121297 7.052444 -19.11467158 6.53836822 -17 6 C-16.34 8.31 -15.68 10.62 -15 13 C-12.03213881 13.93275638 -10.41173003 14.14059074 -7.4375 13.125 C-3.89543489 10.0370458 -2.66901738 6.31162823 -1 2 C-0.67 1.34 -0.34 0.68 0 0 Z " fill="#EF9472" transform="translate(274,199)"/>
<path d="M0 0 C2.0625 0.4375 2.0625 0.4375 4 1 C4.6112487 11.59497742 2.0261058 21.50794668 -4.5 29.9375 C-6 31 -6 31 -10 31 C-13.01975035 26.47037447 -13.0462759 22.2937403 -12 17 C-10.22565669 14.11823593 -8.24004665 11.74580265 -5.9765625 9.234375 C-3.65492958 6.6099204 -2.38807248 4.18440158 -1 1 C-0.67 0.67 -0.34 0.34 0 0 Z " fill="#FDF7F7" transform="translate(336,384)"/>
<path d="M0 0 C0 4.95 0 9.9 0 15 C-0.33 15 -0.66 15 -1 15 C-1.33 11.37 -1.66 7.74 -2 4 C-4.64 6.64 -7.28 9.28 -10 12 C-10 8.26071501 -9.08040398 7.59097747 -6.625 4.875 C-5.99851562 4.17117188 -5.37203125 3.46734375 -4.7265625 2.7421875 C-2.00896861 0 -2.00896861 0 0 0 Z " fill="#F2A386" transform="translate(416,317)"/>
<path d="M0 0 C1.32 0.33 2.64 0.66 4 1 C3.195625 1.45375 2.39125 1.9075 1.5625 2.375 C-2.14001998 6.16782534 -1.89236503 9.87266134 -2 15 C-3.65 15 -5.3 15 -7 15 C-5.68 14.67 -4.36 14.34 -3 14 C-3.03480469 13.32453125 -3.06960937 12.6490625 -3.10546875 11.953125 C-3.13253906 11.06109375 -3.15960938 10.1690625 -3.1875 9.25 C-3.22230469 8.36828125 -3.25710937 7.4865625 -3.29296875 6.578125 C-2.94923684 3.55328417 -1.99772541 2.24416398 0 0 Z " fill="#F7CCBE" transform="translate(248,211)"/>
<path d="M0 0 C1.10370043 3.3111013 0.92673641 5.24748949 0.5625 8.6875 C0.46066406 9.68136719 0.35882813 10.67523438 0.25390625 11.69921875 C0.12822266 12.83810547 0.12822266 12.83810547 0 14 C-0.33 14 -0.66 14 -1 14 C-1.33 11.36 -1.66 8.72 -2 6 C-2.99 6 -3.98 6 -5 6 C-3.35 4.02 -1.7 2.04 0 0 Z " fill="#EC8D82" transform="translate(129,217)"/>
<path d="M0 0 C0.66 0.33 1.32 0.66 2 1 C0.71451591 2.33929505 -0.57858155 3.67128643 -1.875 5 C-2.59429687 5.7425 -3.31359375 6.485 -4.0546875 7.25 C-6 9 -6 9 -8 9 C-6.90101298 5.70303895 -6.05402613 4.95329411 -3.4375 2.8125 C-2.79683594 2.28269531 -2.15617187 1.75289063 -1.49609375 1.20703125 C-0.75552734 0.60955078 -0.75552734 0.60955078 0 0 Z " fill="#EB897C" transform="translate(329,363)"/>
</svg>
